<svg width="28" height="29" viewBox="0 0 28 29" fill="none" xmlns="http://www.w3.org/2000/svg">
<ellipse cx="13.6222" cy="16.169" rx="6.80851" ry="7.03297" fill="black"/>
<line y1="-0.5" x2="6.99112" y2="-0.5" transform="matrix(0.423271 -0.906003 0.894965 0.446137 19.4106 9.68628)" stroke="black"/>
<line y1="-0.5" x2="7.01996" y2="-0.5" transform="matrix(-0.23523 -0.97194 0.968236 -0.250039 11.751 8.43213)" stroke="black"/>
<line y1="-0.5" x2="7.44009" y2="-0.5" transform="matrix(-0.361105 -0.932525 0.924215 -0.381873 7.49585 10.1904)" stroke="black"/>
<line y1="-0.5" x2="6.59088" y2="-0.5" transform="matrix(0.106948 -0.994265 0.993478 0.114026 16.0063 7.55298)" stroke="black"/>
<line y1="-0.5" x2="6.06224" y2="-0.5" transform="matrix(-0.674033 -0.738701 0.716498 -0.69759 4.94263 12.324)" stroke="black"/>
<line y1="-0.5" x2="5.67605" y2="-0.5" transform="matrix(0.449108 -0.893477 0.88125 0.47265 23.666 12.9709)" stroke="black"/>
<path d="M1.70752 16.7419C12.0132 0.869284 22.1175 9.40357 25.8815 15.6548" stroke="black"/>
<path d="M26.7427 14.4751C16.9192 31.0984 5.42282 22.3282 0.902581 15.8651" stroke="black"/>
</svg>
