<svg width="25" height="25" viewBox="0 0 25 25" fill="none" xmlns="http://www.w3.org/2000/svg">
<rect x="0.0605469" y="0.742493" width="24" height="24" fill="white"/>
<path fill-rule="evenodd" clip-rule="evenodd" d="M24.0116 12.5825C23.921 5.98518 18.5013 0.710518 11.9027 0.795851C5.30412 0.881185 0.0284647 6.30518 0.113814 12.9025C0.204498 19.4999 5.62418 24.7745 12.2228 24.6892C18.8213 24.5985 24.1023 19.1799 24.0116 12.5825ZM12.0626 5.05726C13.0068 5.05726 13.7696 5.81992 13.7696 6.76393C13.7696 7.70792 13.0068 8.47059 12.0626 8.47059C11.1185 8.47059 10.3557 7.70792 10.3557 6.76393C10.3557 5.81992 11.1185 5.05726 12.0626 5.05726ZM14.4098 20.1558H9.71554V19.5692H10.8891V11.0358H9.71554V10.3958H13.2362V19.5692H14.4098V20.1558Z" fill="#B0A5A5"/>
<mask id="mask0" mask-type="alpha" maskUnits="userSpaceOnUse" x="0" y="0" width="25" height="25">
<path fill-rule="evenodd" clip-rule="evenodd" d="M24.0116 12.5825C23.921 5.98518 18.5013 0.710518 11.9027 0.795851C5.30412 0.881185 0.0284647 6.30518 0.113814 12.9025C0.204498 19.4999 5.62418 24.7745 12.2228 24.6892C18.8213 24.5985 24.1023 19.1799 24.0116 12.5825ZM12.0626 5.05726C13.0068 5.05726 13.7696 5.81992 13.7696 6.76393C13.7696 7.70792 13.0068 8.47059 12.0626 8.47059C11.1185 8.47059 10.3557 7.70792 10.3557 6.76393C10.3557 5.81992 11.1185 5.05726 12.0626 5.05726ZM14.4098 20.1558H9.71554V19.5692H10.8891V11.0358H9.71554V10.3958H13.2362V19.5692H14.4098V20.1558Z"/>
</mask>
<g mask="url(#mask0)">
<rect x="0.0605469" y="0.742493" width="24" height="24" fill="#B0A5A5"/>
</g>
</svg>
