<svg width="78" height="71" viewBox="0 0 78 71" fill="none" xmlns="http://www.w3.org/2000/svg">
<path fill-rule="evenodd" clip-rule="evenodd" d="M39.2176 33.3432C37.1321 31.2577 32.0908 26.8552 30.9861 24.278C30.5449 23.2485 31.2125 21.8611 30.5697 20.9442C29.2251 19.027 23.6216 13.6386 21.1921 13.2339C18.2458 12.7433 12.7971 16.466 13.3778 20.0065C13.8924 23.1468 19.9938 29.7357 22.1297 30.7382C22.7712 31.0389 23.6162 29.941 24.2135 30.3213C25.2741 30.9961 32.9888 37.4788 32.8619 38.4485C32.576 40.6259 27.0918 44.9712 23.4842 45.9498C21.6251 46.4545 16.7153 45.5483 15.5656 46.2627C13.5349 47.5245 9.29223 52.1269 7.75135 54.1814C7.38763 54.6666 7.26517 55.2928 7.02164 55.8487C7.82066 56.1265 9.06626 55.9131 9.41828 56.682C9.99718 57.9451 9.01763 59.4923 9.31428 60.8495C10.9195 68.1893 19.0426 66.8298 20.5668 67.7265C21.5477 68.3036 21.7476 69.6712 22.3382 70.644C24.3882 68.6872 30.6048 63.3326 31.5074 61.2663C32.8178 58.2674 31.3516 52.3943 33.7996 49.9094C35.2504 48.4365 37.4116 47.8954 39.2176 46.888C41.0237 47.8954 43.1844 48.4365 44.6357 49.9094C47.0832 52.3943 45.6175 58.2674 46.9279 61.2663C47.8304 63.3326 54.0466 68.6872 56.0966 70.644C56.6872 69.6712 56.8876 68.3036 57.868 67.7265C59.3922 66.8298 67.5153 68.1893 69.121 60.8495C69.4176 59.4923 68.4376 57.9451 69.0165 56.682C69.369 55.9131 70.6141 56.1265 71.4132 55.8487C71.1701 55.2928 71.0476 54.6666 70.6835 54.1814C69.143 52.1269 64.8999 47.5245 62.8692 46.2627C61.72 45.5483 56.8097 46.4545 54.9505 45.9498C51.343 44.9712 45.8588 40.6259 45.5729 38.4485C45.446 37.4788 53.1612 30.9961 54.2213 30.3213C54.8186 29.941 55.664 31.0389 56.3051 30.7382C58.4415 29.7357 64.5429 23.1468 65.0574 20.0065C65.6377 16.466 60.189 12.7433 57.2427 13.2339C54.8137 13.6386 49.2097 19.027 47.8656 20.9442C47.2227 21.8611 47.8899 23.2485 47.4487 24.278C46.3445 26.8552 41.3028 31.2577 39.2176 33.3432ZM58.1804 50.4307C62.3236 50.4307 65.6822 53.7893 65.6822 57.9325C65.6822 62.0757 62.3236 65.4343 58.1804 65.4343C54.0372 65.4343 50.6786 62.0757 50.6786 57.9325C50.6786 53.7893 54.0372 50.4307 58.1804 50.4307ZM57.0343 16.9846C59.0483 16.9846 60.681 18.6173 60.681 20.6313C60.681 22.6458 59.0483 24.278 57.0343 24.278C55.0203 24.278 53.3876 22.6458 53.3876 20.6313C53.3876 18.6173 55.0203 16.9846 57.0343 16.9846ZM20.7752 16.9846C22.7897 16.9846 24.4219 18.6173 24.4219 20.6313C24.4219 22.6458 22.7897 24.278 20.7752 24.278C18.7612 24.278 17.1285 22.6458 17.1285 20.6313C17.1285 18.6173 18.7612 16.9846 20.7752 16.9846ZM19.8376 50.4307C23.9808 50.4307 27.3394 53.7893 27.3394 57.9325C27.3394 62.0753 23.9808 65.4343 19.8376 65.4343C15.6948 65.4343 12.3357 62.0753 12.3357 57.9325C12.3357 53.7893 15.6948 50.4307 19.8376 50.4307Z" fill="black"/>
<path fill-rule="evenodd" clip-rule="evenodd" d="M56.9119 31.6759C57.091 33.9064 59.733 35.6494 61.9131 36.1563C64.3102 36.714 76.9757 23.1589 77.8544 21.3606C79.7977 17.3839 61.7209 0.253251 57.4327 0.00116392C54.8429 -0.150538 41.2838 14.5776 41.2829 14.588C41.1542 16.164 44.7487 20.7326 46.4255 20.9091C47.7143 21.0446 51.6986 13.2501 56.1822 12.1918C60.2353 11.2352 67.2753 16.5799 66.185 20.9437C65.1299 25.1671 56.7188 29.2734 56.9119 31.6759Z" fill="#FF0000"/>
<path fill-rule="evenodd" clip-rule="evenodd" d="M21.0885 31.6759C20.9094 33.9064 18.2674 35.6494 16.0873 36.1563C13.6898 36.714 1.02469 23.1589 0.145535 21.3606C-1.79733 17.3839 16.2795 0.253251 20.5677 0.00116392C23.1575 -0.150538 36.7166 14.5776 36.7175 14.588C36.8458 16.164 33.2517 20.7326 31.5749 20.9091C30.2861 21.0446 26.3018 13.2501 21.8178 12.1918C17.765 11.2352 10.7251 16.5799 11.8153 20.9437C12.8705 25.1671 21.2817 29.2734 21.0885 31.6759Z" fill="#FF0000"/>
</svg>
